<mxfile host="65bd71144e">
    <diagram name="Blackjack Game Flowchart" id="0">
        <mxGraphModel dx="636" dy="544" grid="1" gridSize="10" guides="1" tooltips="1" connect="1" arrows="1" fold="1" page="1" pageScale="1" pageWidth="827" pageHeight="1169" math="0" shadow="0">
            <root>
                <mxCell id="0"/>
                <mxCell id="1" parent="0"/>
                <mxCell id="start" value="Start" style="rounded=1;whiteSpace=wrap;html=1;" parent="1" vertex="1">
                    <mxGeometry x="110" y="50" width="100" height="50" as="geometry"/>
                </mxCell>
                <mxCell id="init" value="Initialize Game" style="rounded=1;whiteSpace=wrap;html=1;" parent="1" vertex="1">
                    <mxGeometry x="100" y="150" width="120" height="50" as="geometry"/>
                </mxCell>
                <mxCell id="wager" value="Place Wager" style="rounded=1;whiteSpace=wrap;html=1;" parent="1" vertex="1">
                    <mxGeometry x="100" y="250" width="120" height="50" as="geometry"/>
                </mxCell>
                <mxCell id="deal" value="Deal Cards" style="rounded=1;whiteSpace=wrap;html=1;" parent="1" vertex="1">
                    <mxGeometry x="100" y="350" width="120" height="50" as="geometry"/>
                </mxCell>
                <mxCell id="blackjack" value="Check for Blackjack" style="rounded=1;whiteSpace=wrap;html=1;" parent="1" vertex="1">
                    <mxGeometry x="100" y="450" width="120" height="50" as="geometry"/>
                </mxCell>
                <mxCell id="decision" value="Player Action (Hit, Stand, Double, Split)" style="rounded=1;whiteSpace=wrap;html=1;" parent="1" vertex="1">
                    <mxGeometry x="100" y="550" width="180" height="50" as="geometry"/>
                </mxCell>
                <mxCell id="dealer" value="Dealer Turn" style="rounded=1;whiteSpace=wrap;html=1;" parent="1" vertex="1">
                    <mxGeometry x="330" y="550" width="120" height="50" as="geometry"/>
                </mxCell>
                <mxCell id="winner" value="Determine Winner" style="rounded=1;whiteSpace=wrap;html=1;" parent="1" vertex="1">
                    <mxGeometry x="330" y="640" width="120" height="50" as="geometry"/>
                </mxCell>
                <mxCell id="playAgain" value="Play Again?" style="diamond;whiteSpace=wrap;html=1;" parent="1" vertex="1">
                    <mxGeometry x="330" y="740" width="120" height="50" as="geometry"/>
                </mxCell>
                <mxCell id="end" value="End Game" style="rounded=1;whiteSpace=wrap;html=1;" parent="1" vertex="1">
                    <mxGeometry x="340" y="840" width="100" height="50" as="geometry"/>
                </mxCell>
                <mxCell id="start-init" parent="1" source="start" target="init" edge="1">
                    <mxGeometry relative="1" as="geometry"/>
                </mxCell>
                <mxCell id="init-wager" parent="1" source="init" target="wager" edge="1">
                    <mxGeometry relative="1" as="geometry"/>
                </mxCell>
                <mxCell id="wager-deal" parent="1" source="wager" target="deal" edge="1">
                    <mxGeometry relative="1" as="geometry"/>
                </mxCell>
                <mxCell id="deal-blackjack" parent="1" source="deal" target="blackjack" edge="1">
                    <mxGeometry relative="1" as="geometry"/>
                </mxCell>
                <mxCell id="blackjack-decision" style="edgeStyle=orthogonalEdgeStyle;rounded=0;" parent="1" source="blackjack" target="decision" edge="1">
                    <mxGeometry relative="1" as="geometry"/>
                </mxCell>
                <mxCell id="decision-dealer" parent="1" source="decision" target="dealer" edge="1">
                    <mxGeometry relative="1" as="geometry"/>
                </mxCell>
                <mxCell id="dealer-winner" style="edgeStyle=orthogonalEdgeStyle;rounded=0;" parent="1" source="dealer" target="winner" edge="1">
                    <mxGeometry relative="1" as="geometry">
                        <Array as="points">
                            <mxPoint x="390" y="620"/>
                            <mxPoint x="390" y="620"/>
                        </Array>
                    </mxGeometry>
                </mxCell>
                <mxCell id="winner-playAgain" parent="1" source="winner" target="playAgain" edge="1">
                    <mxGeometry relative="1" as="geometry"/>
                </mxCell>
                <mxCell id="playAgain-end" parent="1" source="playAgain" target="end" edge="1">
                    <mxGeometry relative="1" as="geometry"/>
                </mxCell>
                <mxCell id="playAgain-init" style="entryX=0;entryY=0.5;entryDx=0;entryDy=0;rounded=0;edgeStyle=orthogonalEdgeStyle;" parent="1" source="playAgain" target="init" edge="1">
                    <mxGeometry relative="1" as="geometry">
                        <Array as="points">
                            <mxPoint x="40" y="775"/>
                            <mxPoint x="40" y="175"/>
                        </Array>
                    </mxGeometry>
                    <mxPoint x="250" y="750" as="sourcePoint"/>
                    <mxPoint x="250" y="150" as="targetPoint"/>
                </mxCell>
            </root>
        </mxGraphModel>
    </diagram>
</mxfile>